<svg width="112" height="112" viewBox="0 0 112 112" fill="none" xmlns="http://www.w3.org/2000/svg">
<g clip-path="url(#clip0_16008_27010)">
<mask id="mask0_16008_27010" style="mask-type:luminance" maskUnits="userSpaceOnUse" x="0" y="0" width="112" height="112">
<path d="M112 0H0V112H112V0Z" fill="white"/>
</mask>
<g mask="url(#mask0_16008_27010)">
<path fill-rule="evenodd" clip-rule="evenodd" d="M56 0C86.9301 0 112 25.0699 112 56C112 86.9301 86.9301 112 56 112C25.0699 112 0 86.9301 0 56C0 25.0699 25.0699 0 56 0Z" fill="#F0B90B" fill-opacity="0.3"/>
<path d="M30.7788 56.0003L30.8191 70.8081L43.4012 78.2118V86.8811L23.4557 75.183V51.6702L30.7788 56.0003ZM30.7788 41.1927V49.8215L23.4512 45.4869V36.8581L30.7788 32.5234L38.1422 36.8581L30.7788 41.1927ZM48.6557 36.8581L55.9832 32.5234L63.3467 36.8581L55.9832 41.1927L48.6557 36.8581Z" fill="#F0B90B"/>
<path d="M36.0742 67.7388V59.0696L43.4018 63.4042V72.033L36.0742 67.7388ZM48.6563 81.317L55.9838 85.6516L63.3473 81.317V89.9458L55.9838 94.2805L48.6563 89.9458V81.317ZM73.8563 36.8581L81.1838 32.5234L88.5473 36.8581V45.4869L81.1838 49.8215V41.1927L73.8563 36.8581ZM81.1838 70.8081L81.2242 56.0003L88.5518 51.6657V75.1785L68.6063 86.8766V78.2073L81.1838 70.8081Z" fill="#F0B90B"/>
<path d="M75.9253 67.7396L68.5977 72.0338V63.4049L75.9253 59.0703V67.7396Z" fill="#F0B90B"/>
<path d="M75.9293 44.2604L75.9697 52.9296L63.3518 60.3335V75.1771L56.0242 79.4713L48.6966 75.1771V60.3335L36.0787 52.9296V44.2604L43.4377 39.9258L55.9793 47.3655L68.5973 39.9258L75.9608 44.2604H75.9293ZM36.0742 29.4572L55.9838 17.7188L75.9293 29.4572L68.6018 33.7918L55.9838 26.352L43.4018 33.7918L36.0742 29.4572Z" fill="#F0B90B"/>
</g>
</g>
<defs>
<clipPath id="clip0_16008_27010">
<rect width="112" height="112" fill="white"/>
</clipPath>
</defs>
</svg>
