<svg width="112" height="112" viewBox="0 0 112 112" fill="none" xmlns="http://www.w3.org/2000/svg">
<g clip-path="url(#clip0_16008_26884)">
<path d="M110.312 69.5467C102.833 99.547 72.4473 117.805 42.4435 110.323C12.4522 102.844 -5.80537 72.4569 1.67712 42.459C9.15304 12.4555 39.5385 -5.80349 69.533 1.67571C99.5347 9.15491 117.791 39.5455 110.311 69.5472L110.312 69.5467H110.312Z" fill="#F7931A" fill-opacity="0.3"/>
<path d="M80.6889 48.0196C81.8035 40.5672 76.1298 36.5613 68.3714 33.8889L70.8883 23.794L64.7432 22.2628L62.2931 32.0919C60.6776 31.689 59.0186 31.3094 57.3696 30.933L59.8375 21.039L53.6963 19.5078L51.178 29.5994C49.8412 29.295 48.5281 28.9942 47.2542 28.6773L47.2613 28.6455L38.7871 26.5294L37.1525 33.0927C37.1525 33.0927 41.7116 34.1378 41.6155 34.2021C44.1039 34.8232 44.5539 36.4704 44.4792 37.7761L41.6122 49.2765C41.7836 49.3201 42.0059 49.383 42.2511 49.4816C42.0461 49.4307 41.8279 49.3751 41.6016 49.3209L37.583 65.4314C37.2789 66.1874 36.507 67.322 34.7673 66.8912C34.8288 66.9804 30.3009 65.7766 30.3009 65.7766L27.25 72.8107L35.2468 74.8042C36.7345 75.1773 38.1923 75.5676 39.628 75.9347L37.0851 86.1454L43.2231 87.6766L45.7414 77.5743C47.4182 78.0295 49.0455 78.4494 50.6385 78.8452L48.1288 88.8998L54.2741 90.4311L56.8167 80.2395C67.2954 82.2226 75.1745 81.4231 78.4909 71.9452C81.1633 64.3143 78.3579 59.9129 72.8451 57.0426C76.8604 56.1166 79.8847 53.4757 80.6911 48.0204L80.6892 48.0191L80.6889 48.0196ZM66.6489 67.7074C64.7498 75.3382 51.9018 71.2132 47.7362 70.1788L51.1107 56.6515C55.2759 57.6913 68.6336 59.7492 66.6491 67.7074H66.6489ZM68.5493 47.909C66.8169 54.8501 56.1234 51.3237 52.6545 50.459L55.7139 38.1905C59.1828 39.0552 70.354 40.6691 68.5499 47.909H68.5493Z" fill="#F7931A"/>
</g>
<defs>
<clipPath id="clip0_16008_26884">
<rect width="111.987" height="112" fill="white"/>
</clipPath>
</defs>
</svg>
