<svg width="112" height="112" viewBox="0 0 112 112" fill="none" xmlns="http://www.w3.org/2000/svg">
<g clip-path="url(#clip0_16008_27074)">
<path d="M56 0C25.0718 0 0 25.0718 0 56C0 86.9282 25.0718 112 56 112C86.9282 112 112 86.9282 112 56C112 25.0718 86.9282 0 56 0Z" fill="#C2A633" fill-opacity="0.3"/>
<path fill-rule="evenodd" clip-rule="evenodd" d="M38.0391 109.058C38.4729 109.204 38.9091 109.346 39.3477 109.482C39.1284 109.414 38.9095 109.345 38.6914 109.274L38.0391 109.058ZM73.9609 109.058C73.5271 109.204 73.0909 109.346 72.6523 109.482C72.8717 109.414 73.0904 109.344 73.3086 109.273L73.9609 109.058ZM26.3867 103.539C26.7684 103.777 27.1533 104.011 27.541 104.24C27.1533 104.011 26.7684 103.777 26.3867 103.539ZM85.6133 103.538C85.2315 103.776 84.8469 104.011 84.459 104.24C84.8469 104.011 85.2315 103.776 85.6133 103.538ZM55.3252 25.7158C59.4429 25.7158 86.7166 24.8606 86.7168 56.4863C86.7168 88.6354 58.2002 86.2451 58.2002 86.2451H37.9199V59.2842H30.7705V52.6797H37.9189V25.7158H55.3252ZM7.75977 84.459C7.9891 84.8469 8.22356 85.2315 8.46191 85.6133C8.22356 85.2315 7.9891 84.8469 7.75977 84.459ZM103.539 85.6133C103.777 85.2316 104.011 84.8467 104.24 84.459C104.011 84.8467 103.777 85.2316 103.539 85.6133ZM49.3418 52.6807H61.9297V59.2852H49.3418V75.0586H57.7354C59.8929 75.0586 75.4399 75.3019 75.416 56.707C75.3919 38.1111 60.3354 36.9062 57.3428 36.9062H49.3418V52.6807ZM2.51758 72.6523C2.58581 72.8717 2.65572 73.0904 2.72656 73.3086L2.94238 73.9609C2.79557 73.5271 2.65397 73.0909 2.51758 72.6523ZM109.482 72.6523C109.414 72.8716 109.345 73.0905 109.274 73.3086L109.058 73.9609C109.204 73.5271 109.346 73.0909 109.482 72.6523ZM2.94238 38.0391C2.79557 38.4729 2.65397 38.9091 2.51758 39.3477C2.58578 39.1284 2.65477 38.9095 2.72559 38.6914L2.94238 38.0391ZM109.058 38.0391C109.204 38.4729 109.346 38.9091 109.482 39.3477C109.414 39.1283 109.344 38.9096 109.273 38.6914L109.058 38.0391ZM103.538 26.3867C103.776 26.7685 104.011 27.1531 104.24 27.541C104.011 27.1531 103.776 26.7685 103.538 26.3867ZM8.46094 26.3867H8.46191H8.46094ZM27.541 7.75977C27.1531 7.9891 26.7685 8.22356 26.3867 8.46191C26.7685 8.22356 27.1531 7.9891 27.541 7.75977ZM85.6133 8.46094C85.2316 8.22268 84.8467 7.98902 84.459 7.75977C84.8467 7.98902 85.2316 8.22268 85.6133 8.46094ZM39.3477 2.51758C39.1283 2.58581 38.9096 2.65572 38.6914 2.72656L38.0391 2.94238C38.4729 2.79557 38.9091 2.65397 39.3477 2.51758ZM72.6523 2.51758C72.8716 2.58578 73.0905 2.65477 73.3086 2.72559L73.9609 2.94238C73.5271 2.79557 73.0909 2.65397 72.6523 2.51758Z" fill="#C2A633"/>
</g>
<defs>
<clipPath id="clip0_16008_27074">
<rect width="112" height="112" fill="white"/>
</clipPath>
</defs>
</svg>
