<svg width="112" height="112" viewBox="0 0 112 112" fill="none" xmlns="http://www.w3.org/2000/svg">
<g clip-path="url(#clip0_16008_26960)">
<path d="M56 112C87.0335 112 112 87.0335 112 56C112 24.9665 87.0335 0 56 0C24.9665 0 0 24.9665 0 56C0 87.0335 24.9665 112 56 112Z" fill="#345D9D" fill-opacity="0.3"/>
<path d="M58.3391 57.8977L52.5086 77.5587H83.695C83.9016 77.5515 84.1076 77.585 84.3012 77.6574C84.4948 77.7298 84.6723 77.8397 84.8234 77.9808C84.9745 78.1218 85.0963 78.2912 85.1819 78.4794C85.2675 78.6676 85.3152 78.8708 85.3222 79.0774V79.5926L82.6103 88.9485C82.4907 89.391 82.2243 89.7796 81.8547 90.0507C81.4851 90.3217 81.0343 90.459 80.5764 90.4401H32.8476L40.8476 63.1858L31.8984 65.8977L33.9323 59.6604L42.8815 56.9485L54.1357 18.7112C54.2596 18.2713 54.5272 17.8854 54.8957 17.6151C55.2643 17.3448 55.7128 17.2056 56.1696 17.2197H68.2374C68.444 17.2125 68.65 17.246 68.8436 17.3184C69.0372 17.3909 69.2146 17.5007 69.3658 17.6418C69.5169 17.7828 69.6387 17.9523 69.7243 18.1404C69.8099 18.3286 69.8575 18.5318 69.8645 18.7384V19.2536L60.373 51.5248L69.3222 48.8129L67.4239 55.3214L58.3391 57.8977Z" fill="#345D9D"/>
</g>
<defs>
<clipPath id="clip0_16008_26960">
<rect width="112" height="112" fill="white"/>
</clipPath>
</defs>
</svg>
