<svg width="112" height="112" viewBox="0 0 112 112" fill="none" xmlns="http://www.w3.org/2000/svg">
<g clip-path="url(#clip0_16008_27000)">
<path d="M56 112C86.9279 112 112 86.9279 112 56C112 25.0721 86.9279 0 56 0C25.0721 0 0 25.0721 0 56C0 86.9279 25.0721 112 56 112Z" fill="url(#paint0_linear_16008_27000)" fill-opacity="0.3"/>
<path fill-rule="evenodd" clip-rule="evenodd" d="M86.9626 69.3359C87.871 69.3359 88.351 70.5416 87.699 71.2451L77.6257 82.0195C77.4346 82.2255 77.2056 82.3893 76.9529 82.501C76.7002 82.6126 76.4283 82.6695 76.154 82.6689H25.0378C24.1293 82.6689 23.6493 81.4635 24.3015 80.7666L34.4128 69.9854H34.4255C34.6167 69.7794 34.8457 69.6166 35.0984 69.5049C35.3512 69.3932 35.6228 69.3354 35.8972 69.3359H86.9626ZM76.1453 50.6719C76.4195 50.6714 76.6911 50.7292 76.9441 50.8408C77.1972 50.9526 77.4267 51.1161 77.6179 51.3223L87.698 62.1016C88.3511 62.7986 87.871 64.0049 86.9617 64.0049H35.8552C35.5811 64.0054 35.3093 63.9485 35.0564 63.8369C34.8034 63.7252 34.5737 63.5615 34.3826 63.3555L24.3025 52.5752C23.6494 51.8781 24.1294 50.6719 25.0388 50.6719H76.1453ZM86.9626 29.3359C87.871 29.3362 88.3505 30.5425 87.698 31.2393L77.6257 42.0195C77.4346 42.2256 77.2056 42.3893 76.9529 42.501C76.7001 42.6126 76.4284 42.6695 76.154 42.6689H25.0378C24.1292 42.6689 23.649 41.4633 24.3015 40.7598L34.4128 29.9854H34.4255C34.6167 29.7794 34.8457 29.6166 35.0984 29.5049C35.3512 29.3932 35.6228 29.3354 35.8972 29.3359H86.9626Z" fill="white"/>
<path fill-rule="evenodd" clip-rule="evenodd" d="M86.9626 69.3359C87.871 69.3359 88.351 70.5416 87.699 71.2451L77.6257 82.0195C77.4346 82.2255 77.2056 82.3893 76.9529 82.501C76.7002 82.6126 76.4283 82.6695 76.154 82.6689H25.0378C24.1293 82.6689 23.6493 81.4635 24.3015 80.7666L34.4128 69.9854H34.4255C34.6167 69.7794 34.8457 69.6166 35.0984 69.5049C35.3512 69.3932 35.6228 69.3354 35.8972 69.3359H86.9626ZM76.1453 50.6719C76.4195 50.6714 76.6911 50.7292 76.9441 50.8408C77.1972 50.9526 77.4267 51.1161 77.6179 51.3223L87.698 62.1016C88.3511 62.7986 87.871 64.0049 86.9617 64.0049H35.8552C35.5811 64.0054 35.3093 63.9485 35.0564 63.8369C34.8034 63.7252 34.5737 63.5615 34.3826 63.3555L24.3025 52.5752C23.6494 51.8781 24.1294 50.6719 25.0388 50.6719H76.1453ZM86.9626 29.3359C87.871 29.3362 88.3505 30.5425 87.698 31.2393L77.6257 42.0195C77.4346 42.2256 77.2056 42.3893 76.9529 42.501C76.7001 42.6126 76.4284 42.6695 76.154 42.6689H25.0378C24.1292 42.6689 23.649 41.4633 24.3015 40.7598L34.4128 29.9854H34.4255C34.6167 29.7794 34.8457 29.6166 35.0984 29.5049C35.3512 29.3932 35.6228 29.3354 35.8972 29.3359H86.9626Z" fill="url(#paint1_linear_16008_27000)"/>
</g>
<defs>
<linearGradient id="paint0_linear_16008_27000" x1="92" y1="9.33334" x2="20" y2="98.6667" gradientUnits="userSpaceOnUse">
<stop stop-color="#1CE2AF"/>
<stop offset="0.527026" stop-color="#6697CE"/>
<stop offset="1" stop-color="#C931F7"/>
</linearGradient>
<linearGradient id="paint1_linear_16008_27000" x1="76.5716" y1="33.7804" x2="44.0924" y2="82.1387" gradientUnits="userSpaceOnUse">
<stop stop-color="#1CE2AF"/>
<stop offset="0.527026" stop-color="#6697CE"/>
<stop offset="1" stop-color="#C931F7"/>
</linearGradient>
<clipPath id="clip0_16008_27000">
<rect width="112" height="112" fill="white"/>
</clipPath>
</defs>
</svg>
