<svg width="112" height="112" viewBox="0 0 112 112" fill="none" xmlns="http://www.w3.org/2000/svg">
<g clip-path="url(#clip0_16008_27085)">
<path d="M112 56C112 25.0721 86.9279 0 56 0C25.0721 0 0 25.0721 0 56C0 86.9279 25.0721 112 56 112C86.9279 112 112 86.9279 112 56Z" fill="#F11F5E" fill-opacity="0.3"/>
<path d="M82.0476 33.0072L23.332 23.3359L54.098 98.0026L97.9987 47.639L82.0476 33.0072ZM80.9906 37.6952L90.4569 46.3517L67.2328 49.4189L80.9906 37.6952ZM60.4801 49.6839L34.3604 29.3038L76.3127 36.2108L60.4801 49.6839ZM58.2714 53.2283L53.6957 85.9985L31.6783 32.4771L58.2714 53.2283ZM62.4364 54.1751L89.889 50.5473L57.8215 87.3318L62.4364 54.1751Z" fill="#F11F5E"/>
</g>
<defs>
<clipPath id="clip0_16008_27085">
<rect width="112" height="112" fill="white"/>
</clipPath>
</defs>
</svg>
