<svg width="112" height="112" viewBox="0 0 112 112" fill="none" xmlns="http://www.w3.org/2000/svg">
<g clip-path="url(#clip0_16008_27059)">
<path d="M56 112C87.0335 112 112 87.0335 112 56C112 24.9665 87.0335 0 56 0C24.9665 0 0 24.9665 0 56C0 87.0335 24.9665 112 56 112Z" fill="#2775CA" fill-opacity="0.3"/>
<path d="M71.3993 64.8688C71.3993 56.7023 66.4993 53.9023 56.6993 52.7358C49.6993 51.8023 48.2993 49.9358 48.2993 46.6688C48.2993 43.4017 50.6328 41.3023 55.2993 41.3023C59.4993 41.3023 61.8328 42.7023 62.9993 46.2023C63.2328 46.9023 63.9328 47.3688 64.6328 47.3688H68.3658C69.2993 47.3688 69.9993 46.6688 69.9993 45.7358V45.5023C69.0658 40.3688 64.8658 36.4023 59.4993 35.9358V30.3358C59.4993 29.4023 58.7993 28.7023 57.6328 28.4688H54.1328C53.1993 28.4688 52.4993 29.1687 52.2658 30.3358V35.7023C45.2658 36.6358 40.8328 41.3023 40.8328 47.1358C40.8328 54.8358 45.4993 57.8688 55.2993 59.0358C61.8328 60.2023 63.9328 61.6023 63.9328 65.3358C63.9328 69.0693 60.6658 71.6358 56.2328 71.6358C50.1658 71.6358 48.0658 69.0688 47.3658 65.5688C47.1328 64.6358 46.4328 64.1688 45.7328 64.1688H41.7658C40.8328 64.1688 40.1328 64.8688 40.1328 65.8023V66.0358C41.0658 71.8688 44.7993 76.0688 52.4993 77.2358V82.8358C52.4993 83.7688 53.1993 84.4688 54.3658 84.7023H57.8658C58.7993 84.7023 59.4993 84.0023 59.7328 82.8358V77.2358C66.7328 76.0688 71.3993 71.1688 71.3993 64.8688Z" fill="#2775CA"/>
<path d="M44.0987 89.3689C25.8987 82.8359 16.5652 62.5359 23.3322 44.5689C26.8322 34.7689 34.5322 27.3024 44.0987 23.8024C45.0322 23.3359 45.4987 22.6359 45.4987 21.4689V18.2024C45.4987 17.2689 45.0322 16.5689 44.0987 16.3359C43.8652 16.3359 43.3987 16.3359 43.1652 16.5689C20.9987 23.5689 8.86517 47.1359 15.8652 69.3024C20.0652 82.3689 30.0987 92.4024 43.1652 96.6024C44.0987 97.0689 45.0322 96.6024 45.2652 95.6689C45.4987 95.4359 45.4987 95.2024 45.4987 94.7359V91.4689C45.4987 90.7689 44.7987 89.8359 44.0987 89.3689ZM68.8322 16.5689C67.8987 16.1024 66.9652 16.5689 66.7322 17.5024C66.4987 17.7359 66.4987 17.9689 66.4987 18.4359V21.7024C66.4987 22.6359 67.1987 23.5689 67.8987 24.0359C86.0987 30.5689 95.4322 50.8689 88.6652 68.8359C85.1652 78.6359 77.4652 86.1024 67.8987 89.6024C66.9652 90.0689 66.4987 90.7689 66.4987 91.9359V95.2024C66.4987 96.1359 66.9652 96.8359 67.8987 97.0689C68.1322 97.0689 68.5987 97.0689 68.8322 96.8359C90.9987 89.8359 103.132 66.2689 96.1322 44.1024C91.9322 30.8024 81.6652 20.7689 68.8322 16.5689Z" fill="#2775CA"/>
</g>
<defs>
<clipPath id="clip0_16008_27059">
<rect width="112" height="112" fill="white"/>
</clipPath>
</defs>
</svg>
