<svg width="112" height="112" viewBox="0 0 112 112" fill="none" xmlns="http://www.w3.org/2000/svg">
<g clip-path="url(#clip0_16008_26946)">
<path d="M56 0C86.9266 0 112 25.0734 112 56C112 86.9266 86.9254 112 56 112C25.0746 112 0 86.9333 0 56C0 25.0667 25.0701 0 56 0Z" fill="#53AE94" fill-opacity="0.3"/>
<path d="M62.9135 48.5391V40.2086H81.9636V27.5156H30.0897V40.2086H49.142V48.5324C33.658 49.2436 22.0156 52.3102 22.0156 55.9838C22.0156 59.6574 33.6636 62.7239 49.142 63.4396V90.1236H62.918V63.4374C78.374 62.7239 89.9929 59.6596 89.9929 55.9894C89.9929 52.3191 78.374 49.2548 62.918 48.5414M62.918 61.1772V61.1705C62.5294 61.1951 60.5324 61.315 56.086 61.315C52.5311 61.315 50.0302 61.2142 49.1487 61.1683V61.1795C35.4691 60.5735 25.258 58.1913 25.258 55.3409C25.258 52.4905 35.4702 50.1116 49.1487 49.5046V58.8062C50.0447 58.8678 52.6073 59.019 56.1443 59.019C60.3924 59.019 62.5283 58.842 62.9203 58.8062V49.5046C76.5731 50.1127 86.7606 52.4972 86.7606 55.3375C86.7606 58.1779 76.5686 60.5635 62.9203 61.1716" fill="#53AE94"/>
</g>
<defs>
<clipPath id="clip0_16008_26946">
<rect width="112" height="112" fill="white"/>
</clipPath>
</defs>
</svg>
