<svg width="112" height="112" viewBox="0 0 112 112" fill="none" xmlns="http://www.w3.org/2000/svg">
<rect width="112" height="112" rx="56" fill="white" fill-opacity="0.3"/>
<path d="M80.955 32.522L72.555 36.806L31.962 57.4805C31.3836 53.0376 32.051 48.5213 33.8897 44.4355C35.7283 40.3498 38.6659 36.8552 42.3748 34.3416C46.0837 31.8279 50.418 30.3942 54.8943 30.2002C59.3705 30.0062 63.8126 31.0597 67.725 33.243L72.534 30.793L73.2515 30.4255C68.6893 27.1148 63.275 25.1787 57.6479 24.8459C52.0209 24.5131 46.4161 25.7974 41.4954 28.5472C36.5748 31.2969 32.5437 35.3974 29.8782 40.3642C27.2128 45.3311 26.0242 50.957 26.453 56.5775C26.5332 57.6347 26.2989 58.692 25.7795 59.6162C25.26 60.5405 24.4788 61.2904 23.534 61.7715L20.9965 63.0665V69.1005L28.4655 65.2925L30.884 64.057L33.2675 62.8425L76.0585 41.0375L80.8675 38.591L90.8075 33.5265V27.496L80.955 32.522ZM90.811 39.564L35.7035 67.62L30.8945 70.07L21 75.1205V81.151L30.828 76.146L39.2315 71.862L79.8665 51.156C80.4537 55.6057 79.7909 60.1311 77.9522 64.2255C76.1136 68.3199 73.1717 71.8219 69.4559 74.3393C65.7401 76.8567 61.3969 78.2903 56.9126 78.4796C52.4283 78.6689 47.9798 77.6064 44.065 75.411L43.7675 75.5685L38.5525 78.2285C43.1154 81.541 48.5312 83.4783 54.1598 83.8114C59.7885 84.1444 65.395 82.8594 70.3167 80.1082C75.2384 77.3569 79.2698 73.2543 81.9346 68.2852C84.5993 63.3161 85.786 57.688 85.3545 52.066C85.2751 51.0098 85.5095 49.9538 86.0282 49.0303C86.5469 48.1069 87.3268 47.3573 88.27 46.8755L90.811 45.5805V39.564Z" fill="white"/>
</svg>
