<svg width="112" height="112" viewBox="0 0 112 112" fill="none" xmlns="http://www.w3.org/2000/svg">
<g clip-path="url(#clip0_16008_27024)">
<path d="M56 112C86.9279 112 112 86.9279 112 56C112 25.0721 86.9279 0 56 0C25.0721 0 0 25.0721 0 56C0 86.9279 25.0721 112 56 112Z" fill="white" fill-opacity="0.3"/>
<path d="M80.745 28H90.86L69.8075 48.8495C66.1268 52.4759 61.1671 54.5087 56 54.5087C50.8329 54.5087 45.8732 52.4759 42.1925 48.8495L21.1225 28H31.255L47.25 43.8305C49.5792 46.1295 52.7203 47.4186 55.993 47.4186C59.2657 47.4186 62.4068 46.1295 64.736 43.8305L80.745 28ZM31.1325 85.9705H21L42.1925 64.995C45.8732 61.3686 50.8329 59.3358 56 59.3358C61.1671 59.3358 66.1268 61.3686 69.8075 64.995L91 85.967H80.8675L64.75 70C62.4208 67.701 59.2797 66.4119 56.007 66.4119C52.7343 66.4119 49.5932 67.701 47.264 70L31.129 85.9705H31.1325Z" fill="white"/>
</g>
<defs>
<clipPath id="clip0_16008_27024">
<rect width="112" height="112" fill="white"/>
</clipPath>
</defs>
</svg>
