<svg width="115" height="115" viewBox="0 0 115 115" fill="none" xmlns="http://www.w3.org/2000/svg">
<path d="M82.527 43.4556C82.527 30.0725 71.8033 19.1906 58.492 18.9175C44.4908 18.6444 33.0483 30.2162 33.4651 44.2031C33.5658 47.5956 34.3564 50.8012 35.6933 53.705L57.2414 100.826C57.5289 101.459 58.4345 101.459 58.7364 100.826L80.2845 53.705C81.722 50.5856 82.527 47.1069 82.527 43.4412V43.4556Z" fill="#20CE2E"/>
<path d="M57.9884 61.2375C67.8091 61.2375 75.7703 53.2764 75.7703 43.4556C75.7703 33.6349 67.8091 25.6738 57.9884 25.6738C48.1678 25.6738 40.2065 33.6349 40.2065 43.4556C40.2065 53.2764 48.1678 61.2375 57.9884 61.2375Z" fill="white"/>
<mask id="mask0_13566_56271" style="mask-type:luminance" maskUnits="userSpaceOnUse" x="33" y="18" width="50" height="84">
<path d="M82.527 43.4556C82.527 30.0725 71.8033 19.1906 58.492 18.9175C44.4908 18.6444 33.0483 30.2162 33.4651 44.2031C33.5658 47.5956 34.3564 50.8012 35.6933 53.705L57.2414 100.826C57.5289 101.459 58.4345 101.459 58.7364 100.826L80.2845 53.705C81.722 50.5856 82.527 47.1069 82.527 43.4412V43.4556Z" fill="white"/>
</mask>
<g mask="url(#mask0_13566_56271)">
<path opacity="0.21" d="M81.4487 37.3031L92.6469 26.105C92.9631 25.7887 92.9631 25.2856 92.6469 24.9694L85.1 17.4225C84.7838 17.1062 84.2806 17.1062 83.9644 17.4225L72.7662 28.6206L61.5681 17.4225C61.2519 17.1062 60.7487 17.1062 60.4325 17.4225L52.8856 24.9694C52.5694 25.2856 52.5694 25.7887 52.8856 26.105L64.0838 37.3031L52.8856 48.5012C52.5694 48.8175 52.5694 49.3206 52.8856 49.6369L60.4325 57.1837C60.7487 57.5 61.2519 57.5 61.5681 57.1837L72.7662 45.9856L83.9644 57.1837C84.2806 57.5 84.7838 57.5 85.1 57.1837L92.6469 49.6369C92.9631 49.3206 92.9631 48.8175 92.6469 48.5012L81.4487 37.3031Z" fill="#20CE2E"/>
</g>
<path d="M84.4527 30.4894L95.6508 19.2912C95.967 18.975 95.967 18.4719 95.6508 18.1556L88.1039 10.6087C87.7877 10.2925 87.2845 10.2925 86.9683 10.6087L75.7702 21.8069L64.572 10.6087C64.2558 10.2925 63.7527 10.2925 63.4364 10.6087L55.8895 18.1556C55.5733 18.4719 55.5733 18.975 55.8895 19.2912L67.0877 30.4894L55.8895 41.6875C55.5733 42.0037 55.5733 42.5069 55.8895 42.8231L63.4364 50.37C63.7527 50.6862 64.2558 50.6862 64.572 50.37L75.7702 39.1719L86.9683 50.37C87.2845 50.6862 87.7877 50.6862 88.1039 50.37L95.6508 42.8231C95.967 42.5069 95.967 42.0037 95.6508 41.6875L84.4527 30.4894Z" fill="#FF0000"/>
<path d="M54.553 77.28C47.8255 78.3581 46.7905 79.3931 45.7124 86.1206C45.698 86.2213 45.5687 86.2213 45.5543 86.1206C44.4762 79.3931 43.4412 78.3581 36.7137 77.28C36.613 77.2656 36.613 77.1363 36.7137 77.1219C43.4412 76.0438 44.4762 75.0087 45.5543 68.2812C45.5687 68.1806 45.698 68.1806 45.7124 68.2812C46.7905 75.0087 47.8255 76.0438 54.553 77.1219C54.6536 77.1363 54.6536 77.2656 54.553 77.28Z" fill="white"/>
<path d="M58.1901 69.8769C56.2639 70.1788 55.9764 70.4806 55.6601 72.4069C55.6601 72.4356 55.617 72.4356 55.617 72.4069C55.3151 70.4806 55.0132 70.1931 53.087 69.8769C53.0582 69.8769 53.0582 69.8338 53.087 69.8338C55.0132 69.5319 55.3007 69.23 55.617 67.3038C55.617 67.275 55.6601 67.275 55.6601 67.3038C55.962 69.23 56.2639 69.5175 58.1901 69.8338C58.2189 69.8338 58.2189 69.8769 58.1901 69.8769Z" fill="white"/>
</svg>
