<svg width="65" height="64" viewBox="0 0 65 64" fill="none" xmlns="http://www.w3.org/2000/svg">
<g clip-path="url(#clip0_1723_50255)">
<path d="M36.5029 31.8504L42.7665 42.387L61.1672 31.5267L53.0434 22.0596L53.0754 22.0335L27.7957 16.7812L7.41501 24.7841H7.40315L0.996094 35.7795L27.8917 42.86L35.5425 31.5848L36.5029 31.8504Z" fill="#101A3B"/>
<path d="M10.6582 24.3398L37.28 30.8298L39.0181 29.7794C27.0683 25.7862 24.4552 20.7474 25.1298 18.1094L10.6582 24.3398Z" fill="#20CE2E"/>
<path d="M63.1984 29.9317L55.2939 20.7112C55.1957 20.5175 55.0548 20.3486 54.8819 20.2171C54.709 20.0857 54.5086 19.9952 54.2956 19.9524L29.0219 14.7914C28.7462 14.7337 28.4596 14.7585 28.1979 14.8625L7.81364 22.818C7.69743 22.869 7.58825 22.9348 7.48878 23.0136H7.41764C7.31449 23.1239 7.21609 23.2401 7.12005 23.3575L0.70114 34.3137C0.298031 35.0014 0.525669 35.8823 1.21332 36.2842C1.32951 36.3494 1.45282 36.4016 1.58205 36.4336L6.9185 37.8279V52.9931C6.9185 53.6357 7.34651 54.1988 7.96184 54.3743L36.4332 62.5242C36.8221 62.6475 37.237 62.6025 37.5939 62.3938L55.5275 52.3706C55.9887 52.1181 56.2744 51.632 56.2673 51.0996L56.0788 36.0376L62.8605 32.0504C63.5482 31.6485 63.7758 30.7664 63.3727 30.0858C63.3276 30.0088 63.2755 29.9436 63.2245 29.8724L63.1984 29.9305V29.9317ZM28.8666 17.6902L50.0417 22.0663L47.7273 23.4025L37.1588 29.6009L17.4871 24.8608L13.0908 23.7973L28.8666 17.6902ZM4.14179 34.1975L9.06328 25.8212L16.7342 27.6624L34.0916 31.8571L28.1908 40.5121L4.14179 34.1975ZM9.82918 51.977V38.659L28.4896 43.5544C28.7791 43.6291 29.0847 43.6125 29.3644 43.5068C29.6442 43.4011 29.8844 43.2115 30.0522 42.964L35.1088 35.5396L35.3436 59.2709L9.82918 51.977ZM38.2163 58.7848L37.9828 34.9184L42.4632 42.4198C42.6599 42.7474 42.978 42.9842 43.3482 43.0787C43.7185 43.1733 44.1111 43.118 44.4408 42.9248L53.1942 37.784L53.3424 50.3361L38.2163 58.7848ZM44.2132 39.7154L39.4221 31.7077L49.1868 25.9445L53.6673 23.2923L59.8917 30.5091L44.2132 39.7154Z" fill="#456C99"/>
<path d="M31.4014 1.17578H28.205V10.5255H31.4014V1.17578Z" fill="#456C99"/>
<path d="M38.2744 10.5386L42.9884 2.44676L45.6466 3.8612L40.9397 11.9589L38.2744 10.5386Z" fill="#456C99"/>
<path d="M17.9222 13.6058L12.4352 6.01901H12.4363L14.9973 4.24889L20.4701 11.8356L17.9222 13.6058Z" fill="#456C99"/>
</g>
<defs>
<clipPath id="clip0_1723_50255">
<rect width="64" height="64" fill="white" transform="translate(0.5)"/>
</clipPath>
</defs>
</svg>
