<svg width="24" height="24" viewBox="0 0 24 24" fill="none" xmlns="http://www.w3.org/2000/svg">
<path fill-rule="evenodd" clip-rule="evenodd" d="M11 17L11 7L13 7L13 17L11 17Z" fill="#456C99"/>
<path d="M4.00098 7L20.001 7" stroke="#456C99" stroke-width="1.5" stroke-linecap="round"/>
<path fill-rule="evenodd" clip-rule="evenodd" d="M8.83008 7.09049H15.1698C14.8065 5.67883 13.525 4.63574 11.9999 4.63574C10.4749 4.63574 9.19341 5.67883 8.83008 7.09049Z" fill="#456C99"/>
<path fill-rule="evenodd" clip-rule="evenodd" d="M18.0536 7.1341C18.2417 7.23515 18.318 7.4809 18.2239 7.683L16.3193 11.7742C16.2253 11.9763 15.9965 12.0582 15.8083 11.9572C15.6201 11.8561 15.5439 11.6104 15.638 11.4083L17.5425 7.31707C17.6366 7.11497 17.8654 7.03305 18.0536 7.1341Z" fill="#456C99"/>
<path fill-rule="evenodd" clip-rule="evenodd" d="M17.7121 7.1341C17.5239 7.23515 17.4476 7.4809 17.5417 7.683L19.4463 11.7742C19.5404 11.9763 19.7692 12.0582 19.9573 11.9572C20.1455 11.8561 20.2218 11.6104 20.1277 11.4083L18.2231 7.31707C18.129 7.11497 17.9002 7.03305 17.7121 7.1341Z" fill="#456C99"/>
<path fill-rule="evenodd" clip-rule="evenodd" d="M20.9648 13.3273C21.0817 13.0839 20.8998 12.8187 20.6448 12.8187H14.8113C14.5563 12.8187 14.3744 13.0839 14.4913 13.3273C15.0418 14.4738 16.2839 15.2734 17.7281 15.2734C19.1722 15.2734 20.4143 14.4738 20.9648 13.3273Z" fill="#456C99"/>
<path fill-rule="evenodd" clip-rule="evenodd" d="M6.59847 7.1341C6.78664 7.23515 6.8629 7.4809 6.76882 7.683L4.86427 11.7742C4.77019 11.9763 4.54139 12.0582 4.35322 11.9572C4.16506 11.8561 4.08879 11.6104 4.18288 11.4083L6.08743 7.31707C6.18151 7.11497 6.41031 7.03305 6.59847 7.1341Z" fill="#456C99"/>
<path fill-rule="evenodd" clip-rule="evenodd" d="M6.25699 7.1341C6.06883 7.23515 5.99257 7.4809 6.08665 7.683L7.9912 11.7742C8.08528 11.9763 8.31408 12.0582 8.50224 11.9572C8.69041 11.8561 8.76667 11.6104 8.67259 11.4083L6.76804 7.31707C6.67396 7.11497 6.44516 7.03305 6.25699 7.1341Z" fill="#456C99"/>
<path fill-rule="evenodd" clip-rule="evenodd" d="M9.50974 13.3273C9.62663 13.0839 9.44473 12.8187 9.18972 12.8187H3.35623C3.10122 12.8187 2.91932 13.0839 3.03621 13.3273C3.58674 14.4738 4.82887 15.2734 6.27297 15.2734C7.71708 15.2734 8.95921 14.4738 9.50974 13.3273Z" fill="#456C99"/>
<circle cx="12" cy="5" r="1" fill="#456C99"/>
<path d="M7.00098 19.4C7.00098 18.0745 8.07549 17 9.40098 17H14.601C15.9265 17 17.001 18.0745 17.001 19.4C17.001 19.7314 16.7323 20 16.401 20H7.60098C7.26961 20 7.00098 19.7314 7.00098 19.4Z" fill="#456C99"/>
</svg>
