<svg width="24" height="24" viewBox="0 0 24 24" fill="none" xmlns="http://www.w3.org/2000/svg">
<path d="M12.0001 3C16.9708 3 21.0003 7.15228 21.0003 12.0001C21.0003 16.848 16.8699 21.0003 12.0001 21.0003C7.13043 21.0003 3 16.848 3 12.0001C3 7.15228 7.0295 3 12.0001 3ZM12.0001 4.9691C8.16287 4.9691 4.96846 8.19308 4.96846 12.0008C4.96846 15.7699 8.22523 19.0325 12.0001 19.0325C15.7751 19.0325 19.0318 15.7699 19.0318 12.0008C19.0318 8.19373 15.8374 4.9691 12.0001 4.9691ZM12.0001 5.81255C15.4176 5.81255 18.1877 8.58266 18.1877 12.0001C18.1877 15.4176 15.4176 18.1877 12.0001 18.1877C8.58266 18.1877 5.81255 15.4176 5.81255 12.0001C5.81255 8.58266 8.58266 5.81255 12.0001 5.81255ZM12.6629 8.06258H11.3103V8.75302C10.2445 9.0031 9.59068 9.70575 9.59068 10.7048C9.59068 12.9895 12.8693 12.3698 12.8693 13.3502C12.8693 13.6459 12.6186 13.7847 12.2245 13.7847C11.5797 13.7847 10.5318 13.3592 9.8864 12.7947L9.1876 14.2566C9.76104 14.7195 10.5222 15.0525 11.3103 15.2003V15.9371H12.6629V15.2556C13.8632 15.1264 14.7947 14.4784 14.7947 13.2486C14.7947 10.9086 11.5161 11.4724 11.5161 10.5196C11.5161 10.2792 11.7224 10.168 12.0355 10.168C12.5639 10.168 13.4775 10.51 14.1223 10.8893L14.812 9.40939C14.2476 9.0301 13.4595 8.76202 12.6623 8.68809L12.6629 8.06258Z" fill="#20CE2E"/>
</svg>