<svg width="24" height="24" viewBox="0 0 24 24" fill="none" xmlns="http://www.w3.org/2000/svg">
    <path d="M12 3C16.9705 3 21 7.02952 21 12C21 16.9705 16.9705 21 12 21C7.02952 21 3 16.9705 3 12C3 7.02952 7.02952 3 12 3ZM16.5265 9.7221C16.3998 9.59574 16.228 9.52489 16.049 9.52514C15.8701 9.5254 15.6985 9.59673 15.5721 9.72345L12.6905 12.6131L10.9652 10.7335C10.9029 10.6656 10.8274 10.6112 10.7433 10.5736C10.6592 10.536 10.5683 10.516 10.4762 10.5149C10.3841 10.5138 10.2927 10.5315 10.2077 10.567C10.1227 10.6025 10.0459 10.655 9.98197 10.7213L7.46422 13.3313C7.33992 13.4602 7.27189 13.6331 7.2751 13.8121C7.27831 13.9911 7.35249 14.1615 7.48132 14.2858C7.61016 14.4101 7.7831 14.4781 7.96209 14.4749C8.14109 14.4717 8.31147 14.3975 8.43577 14.2687L10.4556 12.1748L12.173 14.0459C12.2347 14.1131 12.3093 14.1671 12.3923 14.2047C12.4754 14.2422 12.5652 14.2625 12.6564 14.2644C12.7475 14.2663 12.8381 14.2497 12.9227 14.2157C13.0072 14.1816 13.084 14.1307 13.1484 14.0662L16.5279 10.6765C16.6543 10.5498 16.7251 10.378 16.7249 10.199C16.7246 10.0201 16.6533 9.8485 16.5265 9.7221Z" fill="#456C99"/>
</svg>
