<svg width="20" height="40" viewBox="0 0 20 40" fill="none" xmlns="http://www.w3.org/2000/svg">
<g filter="url(#filter0_f_2183_101568)">
<ellipse cx="10.7503" cy="31.4922" rx="3.38702" ry="0.692412" fill="black" fill-opacity="0.08"/>
</g>
<g filter="url(#filter1_f_2183_101568)">
<ellipse cx="10.0417" cy="31.4926" rx="1.48309" ry="0.30319" fill="black" fill-opacity="0.16"/>
</g>
<path d="M9.25 14.4629H10.75V30.7419C10.75 31.1562 10.4142 31.4919 10 31.4919C9.58579 31.4919 9.25 31.1562 9.25 30.7419V14.4629Z" fill="url(#paint0_linear_2183_101568)"/>
<path d="M9.25 14.4629H10.75V30.7419C10.75 31.1562 10.4142 31.4919 10 31.4919C9.58579 31.4919 9.25 31.1562 9.25 30.7419V14.4629Z" fill="url(#paint1_linear_2183_101568)" fill-opacity="0.8"/>
<g>
<circle cx="10.0002" cy="10.0002" r="5.17505" fill="url(#paint2_radial_2183_101568)"/>
<g filter="url(#filter3_f_2183_101568)">
<circle cx="8.26798" cy="8.85001" r="2.28946" fill="#C8FFD4"/>
</g>
<path d="M8.59139 6.8958C8.37784 6.42931 7.81647 6.21661 7.41525 6.53637C7.26729 6.6543 7.12798 6.78333 6.9986 6.92255C6.86921 7.06178 6.75071 7.21016 6.64393 7.36634C6.35438 7.78987 6.60757 8.33419 7.08843 8.51304L7.23931 8.56916C7.63685 8.71702 8.0708 8.49802 8.35954 8.18733C8.64828 7.87664 8.83494 7.42782 8.6584 7.04217L8.59139 6.8958Z" fill="#E8FFEE" fill-opacity="0.85"/>
</g>
<defs>
<filter id="filter0_f_2183_101568" x="6.76725" y="30.2038" width="7.96611" height="2.57682" filterUnits="userSpaceOnUse" color-interpolation-filters="sRGB">
<feFlood flood-opacity="0" result="BackgroundImageFix"/>
<feBlend mode="normal" in="SourceGraphic" in2="BackgroundImageFix" result="shape"/>
<feGaussianBlur stdDeviation="0.298015" result="effect1_foregroundBlur_2183_101568"/>
</filter>
<filter id="filter1_f_2183_101568" x="7.96256" y="30.5934" width="4.15825" height="1.7985" filterUnits="userSpaceOnUse" color-interpolation-filters="sRGB">
<feFlood flood-opacity="0" result="BackgroundImageFix"/>
<feBlend mode="normal" in="SourceGraphic" in2="BackgroundImageFix" result="shape"/>
<feGaussianBlur stdDeviation="0.298015" result="effect1_foregroundBlur_2183_101568"/>
</filter>
<filter id="filter3_f_2183_101568" x="3.49716" y="4.07919" width="9.5417" height="9.54157" filterUnits="userSpaceOnUse" color-interpolation-filters="sRGB">
<feFlood flood-opacity="0" result="BackgroundImageFix"/>
<feBlend mode="normal" in="SourceGraphic" in2="BackgroundImageFix" result="shape"/>
<feGaussianBlur stdDeviation="1.24068" result="effect1_foregroundBlur_2183_101568"/>
</filter>
<linearGradient id="paint0_linear_2183_101568" x1="9.25" y1="29.5141" x2="10.75" y2="29.5141" gradientUnits="userSpaceOnUse">
<stop stop-color="white"/>
<stop offset="0.423077" stop-color="#A1AAAD"/>
<stop offset="0.8125" stop-color="#B0BBBF"/>
<stop offset="1" stop-color="#767C7F"/>
</linearGradient>
<linearGradient id="paint1_linear_2183_101568" x1="10" y1="14.4629" x2="10" y2="31.4919" gradientUnits="userSpaceOnUse">
<stop offset="0.0756975" stop-color="#939C9E"/>
<stop offset="0.596154" stop-color="#D4D8D9" stop-opacity="0.8"/>
<stop offset="0.934701" stop-color="white" stop-opacity="0"/>
</linearGradient>
<radialGradient id="paint2_radial_2183_101568" cx="0" cy="0" r="1" gradientUnits="userSpaceOnUse" gradientTransform="translate(7.51675 8.09606) rotate(70.6684) scale(7.50222 7.98572)">
<stop stop-color="#7CFF8E"/>
<stop offset="0.35" stop-color="#1afa29"/>
<stop offset="0.88" stop-color="#12D522"/>
<stop offset="1" stop-color="#0EA81B"/>
</radialGradient>
</defs>
</svg>
