<svg width="24" height="24" viewBox="0 0 24 24" fill="none" xmlns="http://www.w3.org/2000/svg">
<path d="M6.4712 6.06255L18.7562 16.8386C18.9144 16.9823 19.0019 17.1747 19 17.3745C18.998 17.5743 18.9066 17.7654 18.7456 17.9067C18.5845 18.0479 18.3667 18.1281 18.1389 18.1298C17.9112 18.1315 17.6918 18.0547 17.5279 17.916L13.3151 14.2206V16.1909H13.2916C13.3858 16.9305 13.203 17.6769 12.771 18.3173C12.339 18.9578 11.6811 19.4575 10.8968 19.7412C10.1125 20.0248 9.24424 20.0769 8.42318 19.8896C7.60211 19.7023 6.87281 19.2858 6.34537 18.7029C5.81794 18.1201 5.52101 17.4025 5.49941 16.6586C5.47782 15.9146 5.73273 15.1848 6.22566 14.5791C6.7186 13.9734 7.42279 13.5249 8.23192 13.3012C9.04105 13.0775 9.91119 13.0908 10.711 13.339L10.7101 11.9348L5.24383 7.13993C5.08561 6.99623 4.99805 6.80376 5.00003 6.60398C5.00201 6.40421 5.09336 6.2131 5.25441 6.07184C5.41546 5.93057 5.63333 5.85044 5.86108 5.8487C6.08883 5.84696 6.30824 5.92376 6.47207 6.06255H6.4712ZM16.7896 4C17.2503 4 17.6922 4.16055 18.018 4.44633C18.3438 4.73211 18.5268 5.11971 18.5268 5.52387C18.5268 5.92802 18.3438 6.31562 18.018 6.6014C17.6922 6.88718 17.2503 7.04773 16.7896 7.04773L13.3151 7.04697V9.93241L10.7092 7.64738V4.76193C10.7092 4.55986 10.8007 4.36606 10.9636 4.22317C11.1265 4.08027 11.3475 4 11.5778 4H16.7896Z" fill="#456C99"/>
</svg>
