<svg width="24" height="24" viewBox="0 0 24 24" fill="none" xmlns="http://www.w3.org/2000/svg">
<path d="M10.713 7.65081C10.7114 7.49165 10.71 7.33598 10.7091 7.18502V4.76193C10.7091 4.55986 10.8006 4.36606 10.9635 4.22317C11.1264 4.08027 11.3474 4 11.5778 4H16.7895C17.2502 4 17.6921 4.16055 18.0179 4.44633C18.3437 4.73211 18.5268 5.11971 18.5268 5.52387C18.5268 5.92802 18.3437 6.31562 18.0179 6.6014C17.6921 6.88718 17.2502 7.04773 16.7895 7.04773L13.315 7.04697V9.93241L10.713 7.65081Z" fill="#456C99"/>
<path d="M10.7082 11.9332C10.739 11.3539 10.7429 10.5999 10.7375 9.8049L13.3397 12.0875V14.2423L13.315 14.2206L13.315 16.2461C13.315 16.9883 13.2029 17.6769 12.7709 18.3173C12.3389 18.9578 11.681 19.4575 10.8967 19.7412C10.1124 20.0248 9.24414 20.0769 8.42308 19.8896C7.60202 19.7023 6.87271 19.2858 6.34528 18.7029C5.81784 18.1201 5.52091 17.4025 5.49931 16.6586C5.47772 15.9146 5.73263 15.1848 6.22557 14.5791C6.7185 13.9734 7.4227 13.5249 8.23183 13.3012C9.04096 13.0775 9.91109 13.0908 10.7109 13.339L10.71 11.9348L10.7082 11.9332Z" fill="#456C99"/>
<path d="M10.7148 7.60547L10.7539 10.1484L13.3398 12.1406L13.3125 9.81641L10.7148 7.60547Z" fill="#456C99"/>
</svg>
