<svg width="25" height="24" viewBox="0 0 25 24" fill="none" xmlns="http://www.w3.org/2000/svg">
<path d="M19.1116 16.1168C19.5372 18.5494 17.842 20.3153 15.4795 20.7126C13.1981 21.0964 9.47918 21.0964 7.1977 20.7126C4.83523 20.3159 3.14003 18.5507 3.5656 16.1175C3.92688 14.0533 5.67607 12.767 7.81291 12.8775C9.37375 12.9585 10.3329 13.1617 11.4431 13.1617C12.5661 13.1617 13.3144 12.9585 14.8637 12.8775C16.9999 12.7657 18.751 14.0527 19.1116 16.1168ZM18.3827 12.2964C19.4755 12.4989 20.7908 13.08 21.3179 14.6499C21.8052 16.1014 21.2311 17.2393 20.5773 17.992C20.3691 18.2318 19.9519 18.0235 20.0553 17.7298C20.3241 16.9699 20.4321 15.9992 20.0116 14.9244C19.6028 13.8784 18.8461 13.2195 18.1596 12.8139C17.8729 12.6448 18.0509 12.2347 18.3827 12.2964ZM11.0484 3.58063C13.2926 3.58063 15.1125 5.39989 15.1125 7.64537C15.1125 9.89085 13.2926 11.7101 11.0484 11.7101C8.80354 11.7101 6.98363 9.8902 6.98363 7.64537C6.98363 5.40054 8.80354 3.58063 11.0484 3.58063ZM14.6863 3.64491C14.3597 3.4122 14.595 2.91335 14.9897 3.01299C15.4056 3.11778 15.8338 3.28106 16.233 3.53177C17.5502 4.36105 18.2014 5.82803 17.9693 7.45766C17.8613 8.21815 17.5238 8.80957 17.1439 9.25635C16.8938 9.55142 16.4001 9.30585 16.503 8.93814C16.7447 8.07544 16.816 6.97359 16.3512 5.7631C15.9681 4.76604 15.313 4.09298 14.6863 3.64491Z" fill="#20CE2E"/>
</svg>