<svg width="24" height="24" viewBox="0 0 24 24" fill="none" xmlns="http://www.w3.org/2000/svg">
<path fill-rule="evenodd" clip-rule="evenodd" d="M15.7209 4C13.3574 4 11.4414 5.916 11.4414 8.27951C11.4414 10.643 13.3574 12.559 15.7209 12.559C18.0844 12.559 20.0004 10.643 20.0004 8.27951C20.0004 5.916 18.0844 4 15.7209 4ZM17.3958 7.68944C17.6864 7.58652 17.8386 7.26752 17.7356 6.97692C17.6327 6.68632 17.3137 6.53418 17.0231 6.6371C16.6643 6.76419 16.3311 7.00224 16.0492 7.24946C15.7616 7.50176 15.4949 7.79257 15.2704 8.06164C15.1616 8.19203 15.0611 8.31926 14.9713 8.43724C14.9057 8.37578 14.8399 8.3239 14.7746 8.28039L14.7707 8.27781C14.6529 8.1992 14.4945 8.0936 14.2324 8.0936C13.9241 8.0936 13.6742 8.34351 13.6742 8.65179C13.6742 8.93068 13.8787 9.16181 14.146 9.20335C14.1487 9.20493 14.1518 9.20689 14.1554 9.20928C14.1968 9.23691 14.3245 9.33978 14.4774 9.64569C14.5674 9.82563 14.7472 9.94324 14.9481 9.95353C15.149 9.96381 15.34 9.86493 15.4479 9.6952C15.5691 9.52354 15.9263 9.01812 16.1277 8.77679C16.33 8.53418 16.5559 8.29005 16.7854 8.08881C17.0206 7.8825 17.2292 7.74842 17.3958 7.68944Z" fill="#456C99"/>
<path fill-rule="evenodd" clip-rule="evenodd" d="M12.4343 4.00063C11.1524 4.98714 10.3262 6.53685 10.3262 8.27951C10.3262 11.2596 12.742 13.6754 15.7221 13.6754C16.7436 13.6754 17.6988 13.3916 18.5131 12.8985V13.5335C18.5131 14.8994 18.5131 15.9846 18.3922 16.8347C18.2671 17.7133 18.0031 18.4219 17.415 18.9773C16.8314 19.5285 16.0944 19.7721 15.1797 19.8882C14.2862 20.0017 13.1426 20.0017 11.6907 20.0017H10.8224C9.3705 20.0017 8.22698 20.0017 7.33344 19.8882C6.41876 19.7721 5.68177 19.5285 5.09818 18.9773C4.51007 18.4219 4.24605 17.7133 4.12098 16.8347C3.99998 15.9846 3.99999 14.8994 4 13.5335V10.4682C3.99999 9.10224 3.99998 8.017 4.12098 7.167C4.24605 6.28837 4.51008 5.57977 5.09818 5.02434C5.68177 4.47317 6.41876 4.22958 7.33344 4.11344C8.22698 3.99999 9.37049 3.99999 10.8224 4H11.6907C11.9481 4 12.196 4 12.4343 4.00063ZM6.79099 12.7451C6.79099 12.334 7.12421 12.0008 7.53525 12.0008H9.84862C10.2597 12.0008 10.5929 12.334 10.5929 12.7451C10.5929 13.1561 10.2597 13.4894 9.84862 13.4894H7.53525C7.12421 13.4894 6.79099 13.1561 6.79099 12.7451ZM7.53525 14.9779C7.12421 14.9779 6.79099 15.3111 6.79099 15.7221C6.79099 16.1332 7.12421 16.4664 7.53525 16.4664H13.4894C13.9004 16.4664 14.2336 16.1332 14.2336 15.7221C14.2336 15.3111 13.9004 14.9779 13.4894 14.9779H7.53525Z" fill="#456C99"/>
</svg>
